<svg id="Capa_1" data-name="Capa 1" xmlns="http://www.w3.org/2000/svg" xmlns:xlink="http://www.w3.org/1999/xlink" viewBox="0 0 687 222"><defs><style>.cls-1{fill:url(#Degradado_sin_nombre_4);}.cls-2{fill:url(#Degradado_sin_nombre_4-2);}.cls-3{fill:url(#Degradado_sin_nombre_4-3);}.cls-4{fill:url(#Degradado_sin_nombre_4-4);}.cls-5{fill:url(#Degradado_sin_nombre_4-5);}.cls-6{fill:url(#Degradado_sin_nombre_18);}.cls-7{fill:url(#Degradado_sin_nombre_18-2);}.cls-8{fill:url(#Degradado_sin_nombre_18-3);}.cls-9{fill:url(#Degradado_sin_nombre_18-4);}.cls-10{fill:url(#Degradado_sin_nombre_18-5);}.cls-11{fill:url(#Degradado_sin_nombre_18-6);}.cls-12{fill:url(#Degradado_sin_nombre_18-7);}.cls-13{fill:url(#Degradado_sin_nombre_18-8);}.cls-14{font-size:35px;fill:#8f8f95;font-family:Microsoft-Yi-Baiti, Microsoft Yi Baiti;font-style:italic;letter-spacing:0.06em;}</style><linearGradient id="Degradado_sin_nombre_4" x1="318.92" y1="119.3" x2="387.38" y2="119.3" gradientUnits="userSpaceOnUse"><stop offset="0" stop-color="#6c4be8"/><stop offset="1" stop-color="#1f6fb1"/></linearGradient><linearGradient id="Degradado_sin_nombre_4-2" x1="398.67" y1="103.36" x2="476.74" y2="103.36" xlink:href="#Degradado_sin_nombre_4"/><linearGradient id="Degradado_sin_nombre_4-3" x1="467.69" y1="106.22" x2="574.04" y2="106.22" xlink:href="#Degradado_sin_nombre_4"/><linearGradient id="Degradado_sin_nombre_4-4" x1="553.76" y1="99.52" x2="618.87" y2="99.52" xlink:href="#Degradado_sin_nombre_4"/><linearGradient id="Degradado_sin_nombre_4-5" x1="79.47" y1="109.94" x2="349.71" y2="109.94" xlink:href="#Degradado_sin_nombre_4"/><linearGradient id="Degradado_sin_nombre_18" x1="442" y1="186.93" x2="456.32" y2="186.93" xlink:href="#Degradado_sin_nombre_4"/><linearGradient id="Degradado_sin_nombre_18-2" x1="461.91" y1="186.93" x2="478.13" y2="186.93" xlink:href="#Degradado_sin_nombre_4"/><linearGradient id="Degradado_sin_nombre_18-3" x1="484.14" y1="186.93" x2="498.46" y2="186.93" xlink:href="#Degradado_sin_nombre_4"/><linearGradient id="Degradado_sin_nombre_18-4" x1="504.25" y1="186.93" x2="521.09" y2="186.93" xlink:href="#Degradado_sin_nombre_4"/><linearGradient id="Degradado_sin_nombre_18-5" x1="527.8" y1="187.11" x2="542.93" y2="187.11" xlink:href="#Degradado_sin_nombre_4"/><linearGradient id="Degradado_sin_nombre_18-6" x1="548.8" y1="186.93" x2="564.04" y2="186.93" xlink:href="#Degradado_sin_nombre_4"/><linearGradient id="Degradado_sin_nombre_18-7" x1="568.93" y1="186.93" x2="587.63" y2="186.93" xlink:href="#Degradado_sin_nombre_4"/><linearGradient id="Degradado_sin_nombre_18-8" x1="594.09" y1="186.93" x2="610" y2="186.93" xlink:href="#Degradado_sin_nombre_4"/></defs><path class="cls-1" d="M387.38,82.74A2.14,2.14,0,0,1,387,83.8c-.25.41-.5.84-.77,1.27s-.53.87-.78,1.3a2.39,2.39,0,0,0-.37,1.15c-.58,2.65-1,5.23-1.43,7.75s-.64,5.13-.8,7.81l-1.74,32A52.42,52.42,0,0,1,378.61,149,32,32,0,0,1,373,159.36a23.68,23.68,0,0,1-8.44,6.45,26,26,0,0,1-10.88,2.2,37.58,37.58,0,0,1-14-2.82,81.5,81.5,0,0,1-14.08-7.35c-.37-.25-.93-.67-1.68-1.27a23,23,0,0,1-2.2-2,16.7,16.7,0,0,1-1.92-2.45,4.57,4.57,0,0,1-.84-2.48,2.06,2.06,0,0,1,.47-1.36,3.46,3.46,0,0,1,1.18-.9,6.45,6.45,0,0,1,1.48-.5,7.52,7.52,0,0,1,1.4-.15,6.87,6.87,0,0,1,2.64.71c1.05.48,2.18,1.05,3.38,1.71s2.41,1.35,3.66,2.07a33.36,33.36,0,0,0,3.53,1.83c.87.42,1.95.87,3.25,1.37s2.71.95,4.22,1.36,3.07.76,4.68,1a29.42,29.42,0,0,0,4.65.4,10.7,10.7,0,0,0,9.68-5.33,25.3,25.3,0,0,0,2.76-6.58,61.48,61.48,0,0,0,1.7-9.11c.17-1.28.33-2.76.5-4.44s.34-3.48.53-5.42.39-4,.62-6.17.46-4.38.71-6.61a16.19,16.19,0,0,1-2.14,2.58c-.89.88-1.84,1.76-2.85,2.63s-2,1.68-3.07,2.42-2,1.39-2.86,1.92c-.53.33-1.36.82-2.48,1.46a40.32,40.32,0,0,1-3.84,1.92,37.33,37.33,0,0,1-4.65,1.68,17.67,17.67,0,0,1-4.84.71,16.56,16.56,0,0,1-5.73-1,15.83,15.83,0,0,1-4.53-2.48,11.94,11.94,0,0,1-3-3.48,8,8,0,0,1-1.08-3.93,23.94,23.94,0,0,1,1.11-6.58,47.57,47.57,0,0,1,3.51-8.34,76.45,76.45,0,0,1,6.17-9.7,105,105,0,0,1,9.05-10.61,37.28,37.28,0,0,1,4.65-4,54.68,54.68,0,0,1,6.17-3.94,43.57,43.57,0,0,1,6.79-3,19.51,19.51,0,0,1,6.39-1.21,14.84,14.84,0,0,1,4.59.84,17.45,17.45,0,0,1,4.77,2.42,15,15,0,0,1,3.76,3.81A8.83,8.83,0,0,1,387.38,82.74ZM373.8,82c0-.16-.12-.29-.37-.37a2.4,2.4,0,0,0-.74-.13q-6.45,0-15.44,9.18a56.78,56.78,0,0,0-6,7.29,83.83,83.83,0,0,0-4.55,7.35,53.61,53.61,0,0,0-2.92,6.07,12.53,12.53,0,0,0-1,3.48,3.45,3.45,0,0,0,.62,2.35,1.8,1.8,0,0,0,1.36.68,11.05,11.05,0,0,0,4.53-1.17,39.43,39.43,0,0,0,5.08-2.86,55,55,0,0,0,4.78-3.5q2.24-1.83,3.6-3.13c1.36-1.37,2.48-2.5,3.35-3.41a21.4,21.4,0,0,0,2.2-2.7,16.71,16.71,0,0,0,1.58-3c.45-1.11,1-2.56,1.49-4.34a23.77,23.77,0,0,0,.62-2.45c.2-1,.41-2.07.62-3.19s.41-2.22.62-3.32S373.64,82.79,373.8,82Z"/><path class="cls-2" d="M476.74,93.47a5.21,5.21,0,0,1-.37,1.55,13.55,13.55,0,0,1-1.24,2.48,88.92,88.92,0,0,1-6.05,8.37q-3.61,4.53-8,9a125.75,125.75,0,0,1-9.37,8.68A93,93,0,0,1,441.61,131a59.06,59.06,0,0,1-10.2,5.18,27,27,0,0,1-9.67,2,29.25,29.25,0,0,1-10.17-1.61,18.48,18.48,0,0,1-7.19-4.68,19.61,19.61,0,0,1-4.28-7.51,32.82,32.82,0,0,1-1.43-10.07,67.88,67.88,0,0,1,.65-9.06,49.38,49.38,0,0,1,2.39-9.7,56.52,56.52,0,0,1,4.68-9.92,49.72,49.72,0,0,1,7.54-9.65,25.49,25.49,0,0,1,7.62-5.45,18.92,18.92,0,0,1,7.82-1.86,7.26,7.26,0,0,1,1.73.27,12.54,12.54,0,0,1,2.11.78,14.09,14.09,0,0,1,2.05,1.18,6.83,6.83,0,0,1,1.61,1.49,22.83,22.83,0,0,1,3,4.8,12.67,12.67,0,0,1,1,5.12,24.57,24.57,0,0,1-1.24,8.06A28.12,28.12,0,0,1,436.22,97a42.46,42.46,0,0,1-5.05,6q-2.93,2.92-6.27,6.08a59.31,59.31,0,0,1-5.08,4.19q-3,2.27-6.51,4.93a14.77,14.77,0,0,0,1.24,3.31,7.54,7.54,0,0,0,1.86,2.33,7.24,7.24,0,0,0,2.69,1.39,13.09,13.09,0,0,0,3.76.47,21.84,21.84,0,0,0,6.23-1,50.07,50.07,0,0,0,6.66-2.54,34.49,34.49,0,0,0,5.77-3.45q2.85-2.07,5.77-4.31c1.2-.9,2.74-2.22,4.62-3.93s3.79-3.51,5.73-5.37q2-1.86,4-3.63c1.33-1.17,2.73-2.49,4.22-3.93l3.29-3.23c2.39-1.94,4.34-2.91,5.83-2.91.78,0,1.28.23,1.48.68A3.12,3.12,0,0,1,476.74,93.47Zm-48.12-6.7a6.68,6.68,0,0,0-.83-3.84,2.39,2.39,0,0,0-1.9-1.12,3.56,3.56,0,0,0-2.17,1.12,18.29,18.29,0,0,0-2.57,3,41.44,41.44,0,0,0-2.67,4.4c-.89,1.68-1.71,3.44-2.48,5.3a47.14,47.14,0,0,0-1.92,5.74,38.57,38.57,0,0,0-1.08,5.67l3.25-2.7a31.92,31.92,0,0,0,2.76-2.57q1.31-1.31,2.95-3.19c1.09-1.26,2.14-2.58,3.13-3.94a29.08,29.08,0,0,0,2.51-4.09A8.6,8.6,0,0,0,428.62,86.77Z"/><path class="cls-3" d="M574,95.77a9,9,0,0,1-.43,2.57,20,20,0,0,1-1.09,2.76,21.84,21.84,0,0,1-1.43,2.57,18.87,18.87,0,0,1-1.45,2c-1.33,1.65-2.8,3.41-4.44,5.27s-3.34,3.7-5.11,5.52-3.6,3.56-5.46,5.24a49.49,49.49,0,0,1-5.58,4.37c-1.45,1-2.84,1.91-4.19,2.76a36.33,36.33,0,0,1-4.15,2.26,23.49,23.49,0,0,1-4.53,1.55,22.58,22.58,0,0,1-5.24.56,13.89,13.89,0,0,1-12.71-6.82,25.54,25.54,0,0,1-3-7.1A69.56,69.56,0,0,1,513.7,111a67.67,67.67,0,0,0-1.8-9.33c-.66-2.3-1.46-3.44-2.41-3.44a5.35,5.35,0,0,0-2.42.58,11.6,11.6,0,0,0-2.95,2.52,67.52,67.52,0,0,0-4.46,5.61q-2.7,3.69-7,9.83-1.49,2.1-3.63,4.71c-1.43,1.74-2.92,3.4-4.49,5a52,52,0,0,1-4.69,4.22,14.94,14.94,0,0,1-4.31,2.51q-7.81-1.74-7.81-15a96.2,96.2,0,0,1,.74-9.86q.38-2.91.84-6.13t1.18-6.48c.47-2.18,1-4.3,1.7-6.39a43.26,43.26,0,0,1,2.3-5.8,8.35,8.35,0,0,1,1.67-2.36,7.28,7.28,0,0,1,1.89-1.3,7.15,7.15,0,0,1,2-.56,18.66,18.66,0,0,1,2.11-.12,3.77,3.77,0,0,1,1.8.46A5,5,0,0,1,485.49,81a6.87,6.87,0,0,1,1.08,2.11A9.11,9.11,0,0,1,487,86a15.06,15.06,0,0,1-.25,2.73,26.17,26.17,0,0,1-.69,2.7l-.89,2.94q-.47,1.55-1,3.54c-.21.86-.51,2-.9,3.34s-.79,2.78-1.18,4.25-.76,2.91-1.09,4.31a25.55,25.55,0,0,0-.62,3.54c.75-.87,1.6-2,2.58-3.26s2-2.71,3.06-4.22,2.18-3,3.29-4.62,2.23-3.06,3.35-4.46c1.45-1.82,2.87-3.54,4.28-5.15a29.3,29.3,0,0,1,4.43-4.18,19.69,19.69,0,0,1,5.06-2.79,17.19,17.19,0,0,1,6.14-1,11.9,11.9,0,0,1,6.57,1.65,11.74,11.74,0,0,1,4.06,4.55,24.67,24.67,0,0,1,2.26,6.92c.5,2.66.89,5.57,1.18,8.71.17,1.61.38,3.27.65,5a22.89,22.89,0,0,0,1.21,4.62,9.94,9.94,0,0,0,2.11,3.41,4.33,4.33,0,0,0,3.23,1.34,15.4,15.4,0,0,0,6.23-1.52,42.12,42.12,0,0,0,7.1-4.19,87.48,87.48,0,0,0,7.63-6.2q3.9-3.54,7.81-7.57c.83-.86,1.62-1.72,2.39-2.57s1.5-1.61,2.2-2.29a12.41,12.41,0,0,1,2-1.65,3.79,3.79,0,0,1,2-.62,4.22,4.22,0,0,1,.87.1,2.49,2.49,0,0,1,.93.37,2,2,0,0,1,.71.77A2.77,2.77,0,0,1,574,95.77Z"/><path class="cls-4" d="M618.87,83.67a3.76,3.76,0,0,1-.9,2.58,6.61,6.61,0,0,1-2.2,1.64,11.54,11.54,0,0,1-2.79.9c-1,.19-1.9.32-2.73.4q-4.65.32-9.3.84t-8.4,1q-3.75.47-6.17.81c-1.61.23-2.48.34-2.6.34-.29,1.12-.66,2.52-1.09,4.22s-.89,3.52-1.36,5.48-1,4-1.4,6-.88,4-1.27,5.86-.7,3.55-.93,5a25,25,0,0,0-.34,3.57,19.37,19.37,0,0,0,.22,2.64,14,14,0,0,0,.77,3.06,8.36,8.36,0,0,0,1.49,2.58,3,3,0,0,0,2.35,1.08,8.77,8.77,0,0,0,2.45-.43,18,18,0,0,0,3.23-1.36,31.13,31.13,0,0,0,3.75-2.39,29.05,29.05,0,0,0,4-3.57c.41-.45.89-.93,1.43-1.42a11.92,11.92,0,0,1,1.73-1.34,10.83,10.83,0,0,1,2-1,6.41,6.41,0,0,1,2.26-.4,3.24,3.24,0,0,1,2.54.8,3,3,0,0,1,.69,2.05,7.78,7.78,0,0,1-1.43,4.53q-1.43,2-3.6,4.59a41.27,41.27,0,0,1-3.13,3.19,38,38,0,0,1-5.08,4,36.68,36.68,0,0,1-6.58,3.41,20.39,20.39,0,0,1-7.66,1.46,18.74,18.74,0,0,1-6.6-1,13.42,13.42,0,0,1-4.46-2.66,12,12,0,0,1-2.76-3.79,19.53,19.53,0,0,1-1.46-4.37,27,27,0,0,1-.56-4.4c-.06-1.45-.09-2.75-.09-3.91a26.83,26.83,0,0,1,.4-4.31q.4-2.44,1-5.18c.37-1.81.8-3.69,1.27-5.61s.9-3.76,1.27-5.52.7-3.38,1-4.86a22.75,22.75,0,0,0,.4-3.79,2.43,2.43,0,0,0-.09-.68,1,1,0,0,0-.47-.53,3.23,3.23,0,0,0-1.18-.31,21.32,21.32,0,0,0-2.23-.09c-1.08,0-2.22,0-3.44-.09a11.66,11.66,0,0,1-3.38-.65,6,6,0,0,1-2.57-1.77,5.14,5.14,0,0,1-1-3.44,5.47,5.47,0,0,1,.47-2.39,4.16,4.16,0,0,1,1.24-1.55,4.82,4.82,0,0,1,1.8-.84,12.28,12.28,0,0,1,2.2-.31l13.08-.56c.25-.45.64-1.34,1.18-2.66s1.15-2.89,1.83-4.68,1.37-3.71,2.08-5.74,1.34-3.93,1.92-5.71a12,12,0,0,1,3.16-5.51,7.46,7.46,0,0,1,5.09-1.68,7.63,7.63,0,0,1,3.16.53,3.63,3.63,0,0,1,1.61,1.33,4.16,4.16,0,0,1,.59,1.83q.09,1,.09,2a7.78,7.78,0,0,1-.34,1.43q-.34,1.19-.9,2.88c-.37,1.14-.78,2.39-1.24,3.76s-.92,2.73-1.39,4.12-.93,2.71-1.37,4-.79,2.34-1.08,3.25l2.45-.24c1.13-.13,2.45-.26,3.94-.41s3-.29,4.68-.43,3.16-.29,4.59-.44,2.66-.25,3.72-.34,1.74-.12,2.07-.12a34.5,34.5,0,0,1,5.43.34,9.11,9.11,0,0,1,3.19,1,3.4,3.4,0,0,1,1.49,1.68A6.66,6.66,0,0,1,618.87,83.67Z"/><path class="cls-5" d="M223.89,121.39c6.93,13.28,13.31,26.24,21,38.46,1.41,2.23-.24,3.35-1.24,4.7a90.56,90.56,0,0,1-125.95,18.92C87.39,161.27,73,124,82.26,87.71c9.8-38.28,34.85-62.43,73.74-69.08,39.13-6.69,70.37,8.32,93,41,2.33,3.36,4.37,6.91,6.83,10.84,7.81-13.66,15.79-26.7,22.77-40.25,3.48-6.76,7.44-9.54,15.27-9,11.86.81,23.83.21,36.48.21-6.37,11.85-12.42,23-18.42,34.28Q297,83.62,280.66,110.77c-1.72,2.85-1.6,4.77-.06,7.6a215.35,215.35,0,0,0,67.58,75c.52.36,1,.79,1.53,1.22-24.18,13.19-50.85,10.74-72-8.81-12.53-11.57-21.23-26-29.81-40.44-9.42-15.89-17.14-32.68-25.79-49-3.74-7.06-7.59-14.06-12.8-20.18-16.29-19.18-45-22.82-66-8.39a50,50,0,0,0-15.37,65.56c12.22,22.16,39.8,31.67,62.9,21.68,7.83-3.39,14-8.84,19.22-15.51C214.52,133.71,218.93,127.87,223.89,121.39Z"/><path class="cls-6" d="M456.32,196.84H442V177h13.83v1.44H443.45v7.34h11.6v1.44h-11.6v8.15h12.87Z"/><path class="cls-7" d="M463.7,177l6.32,8.7,6.32-8.7h1.79l-7.22,9.92,7.2,9.9h-1.77L470,188.17l-6.32,8.67h-1.77l7.2-9.9L461.91,177Z"/><path class="cls-8" d="M498.46,196.84H484.14V177H498v1.44H485.59v7.34h11.6v1.44h-11.6v8.15h12.87Z"/><path class="cls-9" d="M519.58,182.32a4.66,4.66,0,0,0-.74-1.66,5.42,5.42,0,0,0-1.36-1.34,6.61,6.61,0,0,0-1.87-.89,7.6,7.6,0,0,0-2.27-.33,8.38,8.38,0,0,0-3.12.56,6.32,6.32,0,0,0-2.39,1.66,7.37,7.37,0,0,0-1.52,2.73,13.78,13.78,0,0,0,0,7.64,7.6,7.6,0,0,0,1.52,2.78,6.2,6.2,0,0,0,2.37,1.7,7.83,7.83,0,0,0,3.08.58,7.27,7.27,0,0,0,4.24-1.15,4.9,4.9,0,0,0,2.06-3.36h1.51a7,7,0,0,1-.89,2.53,6.45,6.45,0,0,1-1.69,1.87,7.17,7.17,0,0,1-2.33,1.16,9.69,9.69,0,0,1-2.86.4,9.25,9.25,0,0,1-3.77-.73,8,8,0,0,1-2.86-2.08,9.44,9.44,0,0,1-1.81-3.24,13.67,13.67,0,0,1-.63-4.29,13.28,13.28,0,0,1,.63-4.23,9.15,9.15,0,0,1,1.82-3.21,8,8,0,0,1,2.86-2,9.44,9.44,0,0,1,3.76-.72,8.75,8.75,0,0,1,2.72.42,8.22,8.22,0,0,1,2.33,1.17,7.21,7.21,0,0,1,1.74,1.79,6.68,6.68,0,0,1,1,2.29Z"/><path class="cls-10" d="M535.37,197.2a10.63,10.63,0,0,1-3-.37,6.42,6.42,0,0,1-2.1-1,5,5,0,0,1-1.32-1.48,7.74,7.74,0,0,1-.74-1.81,10.73,10.73,0,0,1-.32-2q-.06-1-.06-2V177h1.45v11.46a13.39,13.39,0,0,0,.41,3.68,5.1,5.1,0,0,0,1.19,2.22,4.08,4.08,0,0,0,1.92,1.08,10.18,10.18,0,0,0,2.6.29,10.48,10.48,0,0,0,2.63-.29,3.91,3.91,0,0,0,1.92-1.09,5.31,5.31,0,0,0,1.17-2.22,14.13,14.13,0,0,0,.4-3.67V177h1.44v11.51a17.67,17.67,0,0,1-.34,3.66,6.83,6.83,0,0,1-1.19,2.72,5.35,5.35,0,0,1-2.32,1.7A10.12,10.12,0,0,1,535.37,197.2Z"/><path class="cls-11" d="M564,178.46h-6.93v18.38h-1.45V178.46H548.8V177H564Z"/><path class="cls-12" d="M578.29,176.65a9.56,9.56,0,0,1,3.74.73,8.35,8.35,0,0,1,3,2.06,9.72,9.72,0,0,1,1.94,3.22,13,13,0,0,1,0,8.4,9.67,9.67,0,0,1-1.93,3.27,8.66,8.66,0,0,1-3,2.12,9.3,9.3,0,0,1-3.77.75,9.39,9.39,0,0,1-3.79-.75,8.67,8.67,0,0,1-3-2.11,9.51,9.51,0,0,1-1.92-3.26,12.29,12.29,0,0,1-.69-4.22,12.15,12.15,0,0,1,.69-4.21,9.54,9.54,0,0,1,2-3.22,8.65,8.65,0,0,1,3-2.05A9.58,9.58,0,0,1,578.29,176.65Zm0,19.1a8.09,8.09,0,0,0,3.14-.59,6.84,6.84,0,0,0,2.49-1.72,8.14,8.14,0,0,0,1.63-2.8,11.59,11.59,0,0,0,.58-3.78,11.12,11.12,0,0,0-.59-3.76,7.83,7.83,0,0,0-1.63-2.74,6.82,6.82,0,0,0-2.46-1.69,8.31,8.31,0,0,0-3.11-.57,8.54,8.54,0,0,0-3.16.58,7,7,0,0,0-2.49,1.69,7.82,7.82,0,0,0-1.63,2.75,10.76,10.76,0,0,0-.59,3.74,11.33,11.33,0,0,0,.58,3.78,8,8,0,0,0,1.62,2.8,6.72,6.72,0,0,0,2.48,1.72A8.06,8.06,0,0,0,578.27,195.75Z"/><path class="cls-13" d="M610,196.84h-1.59l-2-5.27a11.67,11.67,0,0,0-.64-1.43A5.31,5.31,0,0,0,605,189a3.59,3.59,0,0,0-1.08-.78,3.16,3.16,0,0,0-1.42-.29h-6.93v8.94h-1.45V177H603a12.74,12.74,0,0,1,2.42.22,5.87,5.87,0,0,1,2.08.81,4.18,4.18,0,0,1,1.46,1.6,5.57,5.57,0,0,1,.54,2.62,6.84,6.84,0,0,1-.24,1.85,4.7,4.7,0,0,1-.75,1.54,4.53,4.53,0,0,1-1.26,1.16,5.78,5.78,0,0,1-1.8.7,7.07,7.07,0,0,1,.92.83,4.62,4.62,0,0,1,.62.85,5.66,5.66,0,0,1,.47,1l.48,1.25Zm-14.46-10.39h6.88a12.19,12.19,0,0,0,2.51-.22,4.34,4.34,0,0,0,1.73-.71,3,3,0,0,0,1-1.3,5.09,5.09,0,0,0,.33-1.95,3.29,3.29,0,0,0-1.29-2.93,7,7,0,0,0-3.87-.88h-7.29Z"/><text class="cls-14" transform="translate(398.31 194.58)">by</text></svg>