<?xml version="1.0" encoding="utf-8"?>
<!-- Generator: Adobe Illustrator 24.1.1, SVG Export Plug-In . SVG Version: 6.00 Build 0)  -->
<svg version="1.1" id="Capa_1" xmlns="http://www.w3.org/2000/svg" xmlns:xlink="http://www.w3.org/1999/xlink" x="0px" y="0px"
	 viewBox="0 0 1080 1080" style="enable-background:new 0 0 1080 1080;" xml:space="preserve">
<style type="text/css">
	.st0{fill:#1F6FB1;}
	.st1{fill:#8F8F95;}
	.st2{fill:#6C4BE8;}
	.st3{fill:url(#SVGID_1_);}
	.st4{fill:url(#SVGID_2_);}
	.st5{fill:url(#SVGID_3_);}
	.st6{fill:url(#SVGID_4_);}
	.st7{fill:url(#SVGID_5_);}
	.st8{fill:url(#SVGID_6_);}
	.st9{fill:url(#SVGID_7_);}
	.st10{fill:url(#SVGID_8_);}
	.st11{fill:url(#SVGID_9_);stroke:url(#SVGID_10_);stroke-width:0.75;stroke-miterlimit:10;}
	.st12{fill:url(#SVGID_11_);stroke:url(#SVGID_12_);stroke-width:0.75;stroke-miterlimit:10;}
	.st13{fill:url(#SVGID_13_);stroke:url(#SVGID_14_);stroke-width:0.75;stroke-miterlimit:10;}
	.st14{fill:url(#SVGID_15_);stroke:url(#SVGID_16_);stroke-width:0.75;stroke-miterlimit:10;}
	.st15{fill:url(#SVGID_17_);stroke:url(#SVGID_18_);stroke-width:0.75;stroke-miterlimit:10;}
	.st16{fill:url(#SVGID_19_);stroke:url(#SVGID_20_);stroke-width:0.75;stroke-miterlimit:10;}
	.st17{fill:url(#SVGID_21_);stroke:url(#SVGID_22_);stroke-width:0.75;stroke-miterlimit:10;}
	.st18{fill:url(#SVGID_23_);stroke:url(#SVGID_24_);stroke-width:0.75;stroke-miterlimit:10;}
	.st19{fill:url(#SVGID_25_);stroke:url(#SVGID_26_);stroke-width:0.75;stroke-miterlimit:10;}
	.st20{fill:url(#SVGID_27_);stroke:url(#SVGID_28_);stroke-width:0.75;stroke-miterlimit:10;}
	.st21{fill:url(#SVGID_29_);stroke:url(#SVGID_30_);stroke-width:0.75;stroke-miterlimit:10;}
	.st22{fill:url(#SVGID_31_);stroke:url(#SVGID_32_);stroke-width:0.75;stroke-miterlimit:10;}
	.st23{fill:url(#SVGID_33_);stroke:url(#SVGID_34_);stroke-width:0.75;stroke-miterlimit:10;}
	.st24{fill:url(#SVGID_35_);stroke:url(#SVGID_36_);stroke-width:0.75;stroke-miterlimit:10;}
	.st25{fill:url(#SVGID_37_);}
	.st26{fill:url(#SVGID_38_);}
	.st27{fill:url(#SVGID_39_);}
	.st28{fill:url(#SVGID_40_);}
	.st29{fill:url(#SVGID_41_);}
	.st30{fill:url(#SVGID_42_);}
	.st31{fill:url(#SVGID_43_);}
	.st32{fill:#FEFEFE;}
	.st33{fill:url(#SVGID_44_);}
	.st34{fill:#030303;}
	.st35{fill:#0A0A0A;}
	.st36{fill:url(#SVGID_45_);}
</style>
<polygon class="st0" points="553.5,470.2 553.4,470.2 553.4,470.2 "/>
<polygon class="st0" points="426.9,252 425.9,252 426.7,251.5 "/>
<polygon class="st0" points="428.8,252 428.8,255.2 426.9,252 "/>
<linearGradient id="SVGID_1_" gradientUnits="userSpaceOnUse" x1="21" y1="540.653" x2="1058" y2="540.653">
	<stop  offset="0" style="stop-color:#6C4BE8"/>
	<stop  offset="1" style="stop-color:#1F6FB1"/>
</linearGradient>
<path class="st3" d="M575.2,584.6c26.6,51,51.1,100.7,80.6,147.6c5.4,8.6-0.9,12.9-4.8,18.1c-113.9,152.5-329.9,185-483.3,72.6
	C51.4,737.6-3.9,594.6,31.7,455.4c37.6-146.9,133.7-239.6,283-265.1c150.2-25.7,270,31.9,356.9,157.2c8.9,12.9,16.8,26.5,26.2,41.6
	c30-52.4,60.6-102.5,87.4-154.5c13.4-25.9,28.5-36.6,58.6-34.6c45.5,3.1,91.5,0.8,140,0.8c-24.4,45.5-47.7,88.5-70.7,131.5
	c-38.2,71.5-78.2,142-120,211.4c-6.6,10.9-6.1,18.3-0.2,29.2c63.4,116.8,150.4,212.1,259.3,287.7c2,1.4,3.8,3,5.9,4.7
	c-92.8,50.6-195.1,41.2-276.4-33.8c-48.1-44.4-81.5-99.7-114.4-155.2c-36.2-61-65.8-125.4-98.9-188c-14.4-27.1-29.2-53.9-49.1-77.5
	c-62.5-73.6-172.8-87.5-253.3-32.2c-81.8,56.3-107.1,164.4-59,251.6c46.9,85,152.8,121.5,241.4,83.2c30.1-13,53.9-33.9,73.8-59.5
	C539.3,631.9,556.2,609.5,575.2,584.6z"/>
</svg>
